<svg xmlns="http://www.w3.org/2000/svg" viewBox="0 0 720 720"><defs><style>.cls-1{fill:none;}.cls-2{fill:#e75d3d;}.cls-3{fill:#c74c34;}.cls-4{fill:#fff;}.cls-5{fill:#dbdcdd;}</style></defs><g id="Layer_2" data-name="Layer 2"><rect class="cls-1" width="720" height="720"/></g><g id="Layer_1" data-name="Layer 1"><path class="cls-2" d="M488.55,300.51c0,58.16-86.26,194.25-117.46,241.56a13.27,13.27,0,0,1-22.18,0c-31.2-47.31-117.46-183.4-117.46-241.56a128.55,128.55,0,1,1,257.1,0Z"/><path class="cls-3" d="M360,172v376.1a13.18,13.18,0,0,0,11.09-6c31.2-47.31,117.46-183.4,117.46-241.56A128.55,128.55,0,0,0,360,172Z"/><ellipse class="cls-4" cx="360" cy="297.47" rx="95.84" ry="95.85"/><path class="cls-5" d="M360,201.62V393.33a95.86,95.86,0,0,0,0-191.71Z"/></g></svg>