<?xml version="1.0" standalone="no"?>
<!DOCTYPE svg PUBLIC "-//W3C//DTD SVG 20010904//EN"
 "http://www.w3.org/TR/2001/REC-SVG-20010904/DTD/svg10.dtd">
<svg version="1.0" xmlns="http://www.w3.org/2000/svg"
 width="800.000000pt" height="800.000000pt" viewBox="0 0 800.000000 800.000000"
 preserveAspectRatio="xMidYMid meet">
<metadata>
Created by potrace 1.11, written by Peter Selinger 2001-2013
</metadata>
<g transform="translate(0.000000,800.000000) scale(0.100000,-0.100000)"
fill="#000000" stroke="none">
<path d="M3725 6862 c-259 -257 -772 -765 -1140 -1128 l-669 -662 299 -308
c164 -170 378 -390 474 -489 97 -99 284 -293 416 -430 227 -237 335 -349 662
-685 78 -80 172 -178 210 -218 l68 -72 530 1 c292 1 774 5 1072 8 l542 6 -112
115 c-97 99 -637 663 -837 873 l-65 69 30 25 c17 14 122 114 234 222 112 108
209 201 215 206 6 6 88 82 181 170 156 147 272 257 462 440 l73 70 -67 70
c-37 39 -168 176 -293 305 -268 279 -730 760 -745 776 -5 6 -66 70 -135 141
-69 71 -168 174 -220 229 -52 55 -201 210 -330 344 -130 135 -266 278 -304
318 -38 39 -72 72 -75 72 -3 0 -218 -211 -476 -468z"/>
</g>
</svg>
