<?xml version="1.0" encoding="utf-8"?>
<!-- Generator: Adobe Illustrator 23.0.2, SVG Export Plug-In . SVG Version: 6.00 Build 0)  -->
<svg version="1.1" id="Layer_1" xmlns="http://www.w3.org/2000/svg" xmlns:xlink="http://www.w3.org/1999/xlink" x="0px" y="0px"
	 viewBox="0 0 170.08 170.08" enable-background="new 0 0 170.08 170.08" xml:space="preserve">
<g>
	<g>
		<g>
			<g>
				<polygon fill="#A2A2A2" points="46.6,49.9 53.58,52.33 38.38,53.45 				"/>
				<polygon fill="#B1B1B1" points="44.38,64.44 53.58,52.33 38.38,53.45 				"/>
				<polygon fill="#D0D0D0" points="44.38,64.44 59.89,63.25 53.58,52.33 				"/>
				<polygon fill="#939393" points="34.24,65.17 44.38,64.44 38.38,53.45 				"/>
				<polygon fill="#A2A2A2" points="26.45,63.03 37.26,56.62 34.24,65.17 				"/>
				<polygon fill="#B1B1B1" points="30.07,57.91 26.45,63.03 37.26,56.62 				"/>
				<polygon fill="#C1C1C1" points="58.26,56.33 59.89,63.25 53.58,52.33 				"/>
				<polygon fill="#DFDFDF" points="50.8,73.65 59.89,63.25 44.38,64.44 				"/>
				<polygon fill="#EFEFEF" points="63.74,67.29 50.8,73.65 59.89,63.25 				"/>
				<polygon fill="#C1C1C1" points="63.71,78.6 63.74,67.29 50.8,73.65 				"/>
				<polygon fill="#DFDFDF" points="66.14,72.24 63.71,78.6 63.74,67.29 				"/>
				<polygon fill="#A2A2A2" points="55.62,81.58 63.71,78.6 50.8,73.65 				"/>
				<polygon fill="#B1B1B1" points="60.76,81.25 63.71,78.6 55.62,81.58 				"/>
				<polygon fill="#939393" points="44.6,81.81 50.83,73.65 55.65,81.58 				"/>
				<polygon fill="#A2A2A2" points="38.59,73.65 50.8,73.65 44.56,81.81 				"/>
				<polygon fill="#B1B1B1" points="33.37,81.81 38.62,73.65 44.6,81.81 				"/>
				<polygon fill="#B1B1B1" points="38.59,73.65 44.38,64.44 50.8,73.65 				"/>
				<polygon fill="#A2A2A2" points="38.59,73.65 44.38,64.44 34.24,65.17 				"/>
				<polygon fill="#B1B1B1" points="29.02,73.78 34.24,65.17 38.59,73.65 				"/>
				<polygon fill="#C1C1C1" points="29.02,73.78 33.34,81.81 38.59,73.65 				"/>
				<polygon fill="#C1C1C1" points="29.02,73.78 34.24,65.17 26.45,63.03 				"/>
				<polygon fill="#D0D0D0" points="23.4,81.55 29.05,73.78 33.37,81.81 				"/>
				<polygon fill="#EFEFEF" points="16.5,71.45 29.02,73.78 23.37,81.55 				"/>
				<polygon fill="#DFDFDF" points="16.5,71.45 17.19,77.38 23.37,81.55 				"/>
				<polygon fill="#B1B1B1" points="21.66,63.73 29.02,73.78 26.45,63.03 				"/>
				<polygon fill="#D0D0D0" points="16.5,71.45 21.66,63.73 29.02,73.78 				"/>
				<polygon fill="#C1C1C1" points="21.66,63.73 17.77,66.74 16.5,71.45 				"/>
			</g>
		</g>
		<g>
			<g>
				<path fill="#BCBCBC" d="M62.08,72.84c-0.14-0.4-0.2-0.85-0.29-1.26c-0.23-0.96-0.55-1.95-0.69-2.93c0-0.03-0.01-0.05-0.02-0.08
					c-0.09-0.08-0.18-0.16-0.28-0.24c-0.39-0.33-0.78-0.67-1.16-1c-0.4-0.34-0.79-0.68-1.19-1.03c-0.08-0.07-0.16-0.14-0.24-0.21
					c-0.02-0.01-0.05-0.02-0.09-0.03c-0.95-0.25-1.89-0.66-2.82-0.99c-0.42-0.15-0.83-0.29-1.25-0.44
					c-0.08-0.03-0.12-0.04-0.14-0.04c-0.02,0.01-0.04,0.02-0.06,0.03c-0.87,0.43-1.78,0.78-2.67,1.16c-0.5,0.22-0.99,0.43-1.49,0.65
					c-0.13,0.06-0.63,0.37-0.8,0.37c-0.01,0.02-0.01,0.03-0.02,0.05c-0.06,0.23-0.16,0.46-0.24,0.68c-0.14,0.39-0.27,0.78-0.41,1.16
					c-0.03,0.08-0.08,0.16-0.17,0.17c-0.79,0.14-1.59,0.29-2.38,0.43c-0.52,0.09-1.04,0.19-1.56,0.28
					c-0.15,0.03-0.32,0.08-0.47,0.09c-0.02,0-0.03,0-0.04,0c-0.09,0.22-0.36,0.48-0.48,0.66c-0.3,0.43-0.6,0.86-0.9,1.29
					c-0.24,0.34-0.48,0.68-0.72,1.03c-0.11,0.16-0.17,0.27-0.35,0.33c-0.33,0.11-0.75,0.11-1.09,0.16
					c-0.49,0.07-0.98,0.14-1.47,0.22c-0.13,0.02-0.26,0.04-0.39,0.06c0.02,0,0.12-0.1-0.03,0.02c-0.3,0.27-0.64,0.5-0.96,0.75
					c-0.38,0.3-0.75,0.59-1.13,0.89c-0.07,0.05-0.14,0.1-0.21,0.16c-0.01,0.02-0.03,0.07-0.05,0.13c-0.19,0.88-0.46,1.75-0.7,2.61
					c-0.07,0.25-0.05,0.14-0.01,0.44c0.05,0.43,0.1,0.86,0.15,1.28c0.08,0.69,0.16,1.38,0.24,2.07c0.68,0.46,1.36,0.92,2.03,1.38
					c0.41,0.28,0.82,0.56,1.23,0.84c0.13,0.09,0.28,0.18,0.41,0.28c0.06,0.04,0.13,0.07,0.12,0.08c0.54,0.09,1.17,0.02,1.71,0.03
					c1.06,0.03,2.12,0.06,3.18,0.08c0.36,0.01,0.72,0.02,1.08,0.03c0.06,0,0.13,0,0.2,0c0.05-0.02,0.11-0.02,0.16,0
					c2.34,0,4.68,0,7.02,0c2.33-0.05,4.66-0.1,7-0.15c0,0,0,0,0.01,0c0.47-0.03,0.94-0.06,1.41-0.09c0.55-0.04,1.18-0.17,1.73-0.11
					c0,0,0,0,0,0c0.03-0.02,0.05-0.04,0.08-0.07c0.17-0.18,0.37-0.33,0.55-0.5c0.38-0.34,0.76-0.69,1.14-1.03
					c0.02-0.04,0.03-0.08,0.04-0.12c0.07-0.2,0.15-0.4,0.23-0.6c0.22-0.58,0.44-1.16,0.66-1.74c0.17-0.45,0.3-0.95,0.52-1.38
					c0-0.01,0.01-0.02,0.01-0.03C66,78.64,65.99,78.62,66,78.6c-0.07-0.11-0.12-0.3-0.17-0.39c-0.42-0.88-0.84-1.75-1.26-2.63
					c-0.69-0.73-1.38-1.46-2.07-2.19C62.33,73.21,62.16,73.07,62.08,72.84z"/>
				<g>
					<polygon fill="#FFFFFF" points="63.12,73.9 63.12,74.42 63.61,74.42 					"/>
					<rect x="49.27" y="70.48" fill="#FFFFFF" width="1.17" height="1.17"/>
					<polygon fill="#FFFFFF" points="50.3,66.1 50.44,66.1 50.44,66.05 					"/>
					<rect x="50.65" y="70.48" fill="#FFFFFF" width="1.17" height="1.17"/>
					<rect x="52.04" y="70.48" fill="#FFFFFF" width="1.17" height="1.17"/>
					<polygon fill="#FFFFFF" points="51.82,65.45 50.65,65.95 50.65,66.1 51.82,66.1 					"/>
					<rect x="36.8" y="78.79" fill="#FFFFFF" width="1.17" height="1.17"/>
					<polygon fill="#FFFFFF" points="50.44,66.32 49.8,66.32 49.27,66.55 49.27,67.49 50.44,67.49 					"/>
					<polygon fill="#FFFFFF" points="37.97,83.48 37.97,82.94 37.17,82.94 					"/>
					<rect x="63.12" y="81.56" fill="#FFFFFF" width="1.17" height="1.17"/>
					<rect x="43.72" y="74.63" fill="#FFFFFF" width="1.17" height="1.17"/>
					<rect x="50.65" y="67.7" fill="#FFFFFF" width="1.17" height="1.17"/>
					<rect x="52.04" y="67.7" fill="#FFFFFF" width="1.17" height="1.17"/>
					<rect x="53.42" y="67.7" fill="#FFFFFF" width="1.17" height="1.17"/>
					<rect x="54.81" y="67.7" fill="#FFFFFF" width="1.17" height="1.17"/>
					<rect x="49.27" y="67.7" fill="#FFFFFF" width="1.17" height="1.17"/>
					<polygon fill="#FFFFFF" points="44.89,69.35 43.72,69.56 43.72,70.26 44.89,70.26 					"/>
					<rect x="43.72" y="71.86" fill="#FFFFFF" width="1.17" height="1.17"/>
					<rect x="43.72" y="73.25" fill="#FFFFFF" width="1.17" height="1.17"/>
					<rect x="43.72" y="70.48" fill="#FFFFFF" width="1.17" height="1.17"/>
					<rect x="52.04" y="71.86" fill="#FFFFFF" width="1.17" height="1.17"/>
					<polygon fill="#FFFFFF" points="49.05,67.7 48.44,67.7 48.06,68.78 47.88,68.81 47.88,68.87 49.05,68.87 					"/>
					<rect x="56.19" y="81.56" fill="#FFFFFF" width="1.17" height="1.17"/>
					<rect x="56.19" y="78.79" fill="#FFFFFF" width="1.17" height="1.17"/>
					<rect x="54.81" y="81.56" fill="#FFFFFF" width="1.17" height="1.17"/>
					<rect x="56.19" y="66.32" fill="#FFFFFF" width="1.17" height="1.17"/>
					<rect x="56.19" y="80.17" fill="#FFFFFF" width="1.17" height="1.17"/>
					<rect x="53.42" y="81.56" fill="#FFFFFF" width="1.17" height="1.17"/>
					<rect x="49.27" y="81.56" fill="#FFFFFF" width="1.17" height="1.17"/>
					<rect x="52.04" y="81.56" fill="#FFFFFF" width="1.17" height="1.17"/>
					<rect x="50.65" y="81.56" fill="#FFFFFF" width="1.17" height="1.17"/>
					<rect x="56.19" y="67.7" fill="#FFFFFF" width="1.17" height="1.17"/>
					<rect x="56.19" y="69.09" fill="#FFFFFF" width="1.17" height="1.17"/>
					<rect x="56.19" y="71.86" fill="#FFFFFF" width="1.17" height="1.17"/>
					<rect x="54.81" y="66.32" fill="#FFFFFF" width="1.17" height="1.17"/>
					<rect x="47.88" y="81.56" fill="#FFFFFF" width="1.17" height="1.17"/>
					<rect x="56.19" y="73.25" fill="#FFFFFF" width="1.17" height="1.17"/>
					<rect x="56.19" y="76.02" fill="#FFFFFF" width="1.17" height="1.17"/>
					<rect x="52.04" y="73.25" fill="#FFFFFF" width="1.17" height="1.17"/>
					<rect x="56.19" y="77.4" fill="#FFFFFF" width="1.17" height="1.17"/>
					<rect x="56.19" y="74.63" fill="#FFFFFF" width="1.17" height="1.17"/>
					<rect x="43.72" y="78.79" fill="#FFFFFF" width="1.17" height="1.17"/>
					<rect x="50.65" y="66.32" fill="#FFFFFF" width="1.17" height="1.17"/>
					<rect x="43.72" y="76.02" fill="#FFFFFF" width="1.17" height="1.17"/>
					<rect x="43.72" y="77.4" fill="#FFFFFF" width="1.17" height="1.17"/>
					<rect x="52.04" y="66.32" fill="#FFFFFF" width="1.17" height="1.17"/>
					<rect x="52.04" y="77.4" fill="#FFFFFF" width="1.17" height="1.17"/>
					<rect x="52.04" y="74.63" fill="#FFFFFF" width="1.17" height="1.17"/>
					<rect x="52.04" y="76.02" fill="#FFFFFF" width="1.17" height="1.17"/>
					<rect x="53.42" y="66.32" fill="#FFFFFF" width="1.17" height="1.17"/>
					<rect x="54.81" y="69.09" fill="#FFFFFF" width="1.17" height="1.17"/>
					<rect x="45.11" y="81.56" fill="#FFFFFF" width="1.17" height="1.17"/>
					<rect x="43.72" y="81.56" fill="#FFFFFF" width="1.17" height="1.17"/>
					
						<rect x="39.28" y="84.27" transform="matrix(0.0263 -0.9997 0.9997 0.0263 -46.048 121.3863)" fill="#FFFFFF" width="0.01" height="0.13"/>
					<rect x="43.72" y="80.17" fill="#FFFFFF" width="1.17" height="1.17"/>
					<rect x="46.5" y="81.56" fill="#FFFFFF" width="1.17" height="1.17"/>
					<rect x="56.19" y="70.48" fill="#FFFFFF" width="1.17" height="1.17"/>
					<rect x="49.27" y="74.63" fill="#FFFFFF" width="1.17" height="1.17"/>
					<polygon fill="#FFFFFF" points="47.55,68.87 47.66,68.87 47.66,68.85 					"/>
					<rect x="49.27" y="73.25" fill="#FFFFFF" width="1.17" height="1.17"/>
					<rect x="46.5" y="78.79" fill="#FFFFFF" width="1.17" height="1.17"/>
					<rect x="47.88" y="76.02" fill="#FFFFFF" width="1.17" height="1.17"/>
					<rect x="47.88" y="74.63" fill="#FFFFFF" width="1.17" height="1.17"/>
					<rect x="47.88" y="73.25" fill="#FFFFFF" width="1.17" height="1.17"/>
					<rect x="50.65" y="76.02" fill="#FFFFFF" width="1.17" height="1.17"/>
					<polygon fill="#FFFFFF" points="48.77,66.77 48.51,67.49 49.05,67.49 49.05,66.64 					"/>
					<rect x="53.42" y="64.93" fill="#FFFFFF" width="1.17" height="1.17"/>
					<polygon fill="#FFFFFF" points="43.49,69.6 43.03,70.26 43.51,70.26 43.51,69.6 					"/>
					<polygon fill="#FFFFFF" points="42.05,71.64 42.12,71.64 42.12,71.54 					"/>
					<rect x="49.27" y="69.09" fill="#FFFFFF" width="1.17" height="1.17"/>
					<rect x="46.5" y="69.09" fill="#FFFFFF" width="1.17" height="1.17"/>
					<rect x="47.88" y="69.09" fill="#FFFFFF" width="1.17" height="1.17"/>
					<polygon fill="#FFFFFF" points="57.36,65.77 56.19,65.36 56.19,66.1 57.36,66.1 					"/>
					<polygon fill="#FFFFFF" points="58.24,66.07 57.58,65.84 57.58,66.1 58.28,66.1 					"/>
					<rect x="47.88" y="71.86" fill="#FFFFFF" width="1.17" height="1.17"/>
					<rect x="49.27" y="76.02" fill="#FFFFFF" width="1.17" height="1.17"/>
					<rect x="49.27" y="78.79" fill="#FFFFFF" width="1.17" height="1.17"/>
					<rect x="52.04" y="78.79" fill="#FFFFFF" width="1.17" height="1.17"/>
					<rect x="49.27" y="71.86" fill="#FFFFFF" width="1.17" height="1.17"/>
					<rect x="53.42" y="78.79" fill="#FFFFFF" width="1.17" height="1.17"/>
					<rect x="50.65" y="78.79" fill="#FFFFFF" width="1.17" height="1.17"/>
					<rect x="50.65" y="73.25" fill="#FFFFFF" width="1.17" height="1.17"/>
					<rect x="47.88" y="78.79" fill="#FFFFFF" width="1.17" height="1.17"/>
					<rect x="54.81" y="70.48" fill="#FFFFFF" width="1.17" height="1.17"/>
					<rect x="50.65" y="71.86" fill="#FFFFFF" width="1.17" height="1.17"/>
					<rect x="53.42" y="77.4" fill="#FFFFFF" width="1.17" height="1.17"/>
					<rect x="52.04" y="69.09" fill="#FFFFFF" width="1.17" height="1.17"/>
					<rect x="53.42" y="69.09" fill="#FFFFFF" width="1.17" height="1.17"/>
					<rect x="53.42" y="70.48" fill="#FFFFFF" width="1.17" height="1.17"/>
					<rect x="50.65" y="69.09" fill="#FFFFFF" width="1.17" height="1.17"/>
					<rect x="53.42" y="73.25" fill="#FFFFFF" width="1.17" height="1.17"/>
					<rect x="53.42" y="71.86" fill="#FFFFFF" width="1.17" height="1.17"/>
					<rect x="53.42" y="74.63" fill="#FFFFFF" width="1.17" height="1.17"/>
					<rect x="53.42" y="76.02" fill="#FFFFFF" width="1.17" height="1.17"/>
					<rect x="50.65" y="74.63" fill="#FFFFFF" width="1.17" height="1.17"/>
					<rect x="46.5" y="80.17" fill="#FFFFFF" width="1.17" height="1.17"/>
					<rect x="52.04" y="80.17" fill="#FFFFFF" width="1.17" height="1.17"/>
					<rect x="50.65" y="80.17" fill="#FFFFFF" width="1.17" height="1.17"/>
					<rect x="49.27" y="80.17" fill="#FFFFFF" width="1.17" height="1.17"/>
					<rect x="45.11" y="77.4" fill="#FFFFFF" width="1.17" height="1.17"/>
					<rect x="45.11" y="76.02" fill="#FFFFFF" width="1.17" height="1.17"/>
					<rect x="45.11" y="80.17" fill="#FFFFFF" width="1.17" height="1.17"/>
					<rect x="45.11" y="78.79" fill="#FFFFFF" width="1.17" height="1.17"/>
					<rect x="54.81" y="80.17" fill="#FFFFFF" width="1.17" height="1.17"/>
					<rect x="54.81" y="74.63" fill="#FFFFFF" width="1.17" height="1.17"/>
					<rect x="54.81" y="73.25" fill="#FFFFFF" width="1.17" height="1.17"/>
					<rect x="54.81" y="71.86" fill="#FFFFFF" width="1.17" height="1.17"/>
					<rect x="54.81" y="76.02" fill="#FFFFFF" width="1.17" height="1.17"/>
					<rect x="54.81" y="77.4" fill="#FFFFFF" width="1.17" height="1.17"/>
					<rect x="53.42" y="80.17" fill="#FFFFFF" width="1.17" height="1.17"/>
					<rect x="54.81" y="78.79" fill="#FFFFFF" width="1.17" height="1.17"/>
					<rect x="47.88" y="80.17" fill="#FFFFFF" width="1.17" height="1.17"/>
					<rect x="45.11" y="74.63" fill="#FFFFFF" width="1.17" height="1.17"/>
					<rect x="46.5" y="73.25" fill="#FFFFFF" width="1.17" height="1.17"/>
					<rect x="46.5" y="76.02" fill="#FFFFFF" width="1.17" height="1.17"/>
					<rect x="46.5" y="74.63" fill="#FFFFFF" width="1.17" height="1.17"/>
					<rect x="46.5" y="77.4" fill="#FFFFFF" width="1.17" height="1.17"/>
					<rect x="45.11" y="73.25" fill="#FFFFFF" width="1.17" height="1.17"/>
					<polygon fill="#FFFFFF" points="46.28,69.1 45.11,69.31 45.11,70.26 46.28,70.26 					"/>
					<rect x="45.11" y="70.48" fill="#FFFFFF" width="1.17" height="1.17"/>
					<rect x="45.11" y="71.86" fill="#FFFFFF" width="1.17" height="1.17"/>
					<rect x="46.5" y="71.86" fill="#FFFFFF" width="1.17" height="1.17"/>
					<rect x="50.65" y="77.4" fill="#FFFFFF" width="1.17" height="1.17"/>
					<rect x="49.27" y="77.4" fill="#FFFFFF" width="1.17" height="1.17"/>
					<polygon fill="#FFFFFF" points="61.16,68.56 60.35,67.87 60.35,68.87 61.23,68.87 					"/>
					<rect x="60.35" y="70.48" fill="#FFFFFF" width="1.17" height="1.17"/>
					<polygon fill="#FFFFFF" points="58.96,66.69 58.96,67.49 59.9,67.49 					"/>
					<rect x="47.88" y="77.4" fill="#FFFFFF" width="1.17" height="1.17"/>
					<rect x="46.5" y="70.48" fill="#FFFFFF" width="1.17" height="1.17"/>
					<rect x="47.88" y="70.48" fill="#FFFFFF" width="1.17" height="1.17"/>
					<polygon fill="#FFFFFF" points="35.19,77.19 35.2,77.19 35.2,77.18 					"/>
					<polygon fill="#FFFFFF" points="61.52,70.26 61.52,70.08 61.28,69.09 60.35,69.09 60.35,70.26 					"/>
					<rect x="38.18" y="74.63" fill="#FFFFFF" width="1.17" height="1.17"/>
					<polygon fill="#FFFFFF" points="39.35,73.25 38.41,73.25 38.18,73.28 38.18,74.42 39.35,74.42 					"/>
					<rect x="38.18" y="76.02" fill="#FFFFFF" width="1.17" height="1.17"/>
					<rect x="60.35" y="71.86" fill="#FFFFFF" width="1.17" height="1.17"/>
					<polygon fill="#FFFFFF" points="62.29,73.03 62.19,72.93 61.94,71.86 61.73,71.86 61.73,73.03 					"/>
					<rect x="38.18" y="77.4" fill="#FFFFFF" width="1.17" height="1.17"/>
					<polygon fill="#FFFFFF" points="61.73,70.99 61.73,71.64 61.89,71.64 					"/>
					<rect x="38.18" y="81.56" fill="#FFFFFF" width="1.17" height="1.17"/>
					<rect x="38.18" y="78.79" fill="#FFFFFF" width="1.17" height="1.17"/>
					<rect x="61.73" y="81.56" fill="#FFFFFF" width="1.17" height="1.17"/>
					<rect x="61.73" y="80.17" fill="#FFFFFF" width="1.17" height="1.17"/>
					<rect x="61.73" y="78.79" fill="#FFFFFF" width="1.17" height="1.17"/>
					<polygon fill="#FFFFFF" points="61.73,84.11 62.84,84.11 62.9,84.05 62.9,82.94 61.73,82.94 					"/>
					<rect x="38.18" y="80.17" fill="#FFFFFF" width="1.17" height="1.17"/>
					<rect x="60.35" y="73.25" fill="#FFFFFF" width="1.17" height="1.17"/>
					<polygon fill="#FFFFFF" points="38.18,82.94 38.18,83.63 38.9,84.11 39.35,84.11 39.35,82.94 					"/>
					<rect x="60.35" y="74.63" fill="#FFFFFF" width="1.17" height="1.17"/>
					<rect x="39.57" y="82.94" fill="#FFFFFF" width="1.17" height="1.17"/>
					<rect x="39.57" y="80.17" fill="#FFFFFF" width="1.17" height="1.17"/>
					<rect x="39.57" y="77.4" fill="#FFFFFF" width="1.17" height="1.17"/>
					<rect x="39.57" y="81.56" fill="#FFFFFF" width="1.17" height="1.17"/>
					<rect x="39.57" y="78.79" fill="#FFFFFF" width="1.17" height="1.17"/>
					<rect x="39.57" y="76.02" fill="#FFFFFF" width="1.17" height="1.17"/>
					<rect x="61.73" y="77.4" fill="#FFFFFF" width="1.17" height="1.17"/>
					<rect x="39.57" y="74.63" fill="#FFFFFF" width="1.17" height="1.17"/>
					<rect x="39.57" y="73.25" fill="#FFFFFF" width="1.17" height="1.17"/>
					<polygon fill="#FFFFFF" points="39.57,84.34 40.74,84.37 40.74,84.33 39.57,84.33 					"/>
					<rect x="60.35" y="78.79" fill="#FFFFFF" width="1.17" height="1.17"/>
					<rect x="60.35" y="77.4" fill="#FFFFFF" width="1.17" height="1.17"/>
					<rect x="60.35" y="76.02" fill="#FFFFFF" width="1.17" height="1.17"/>
					<rect x="60.35" y="80.17" fill="#FFFFFF" width="1.17" height="1.17"/>
					<rect x="60.35" y="82.94" fill="#FFFFFF" width="1.17" height="1.17"/>
					<rect x="60.35" y="81.56" fill="#FFFFFF" width="1.17" height="1.17"/>
					<rect x="36.8" y="80.17" fill="#FFFFFF" width="1.17" height="1.17"/>
					<polygon fill="#FFFFFF" points="65.46,77.19 64.89,76.02 64.5,76.02 64.5,77.19 					"/>
					<polygon fill="#FFFFFF" points="64.29,75.8 64.29,75.13 63.81,74.63 63.12,74.63 63.12,75.8 					"/>
					<polygon fill="#FFFFFF" points="64.64,75.49 64.5,75.36 64.5,75.8 64.78,75.8 					"/>
					<polygon fill="#FFFFFF" points="65.67,78.57 65.67,77.63 65.56,77.4 64.5,77.4 64.5,78.57 					"/>
					<rect x="63.12" y="80.17" fill="#FFFFFF" width="1.17" height="1.17"/>
					<rect x="63.12" y="76.02" fill="#FFFFFF" width="1.17" height="1.17"/>
					<polygon fill="#FFFFFF" points="66.12,78.56 65.89,78.08 65.89,78.57 66.12,78.57 					"/>
					<rect x="63.12" y="77.4" fill="#FFFFFF" width="1.17" height="1.17"/>
					<rect x="63.12" y="78.79" fill="#FFFFFF" width="1.17" height="1.17"/>
					<polygon fill="#FFFFFF" points="35.04,78.79 35.18,79.96 35.2,79.96 35.2,78.79 					"/>
					<polygon fill="#FFFFFF" points="35.41,81.76 36.58,82.55 36.58,81.56 35.41,81.56 					"/>
					<polygon fill="#FFFFFF" points="36.58,76.02 35.51,76.02 35.41,76.38 35.41,77.19 36.58,77.19 					"/>
					<polygon fill="#FFFFFF" points="35.14,77.4 34.96,78.07 35.01,78.57 35.2,78.57 35.2,77.4 					"/>
					<polygon fill="#FFFFFF" points="64.5,79.96 65.59,79.96 65.67,79.74 65.67,78.79 64.5,78.79 					"/>
					<polygon fill="#FFFFFF" points="66.04,78.79 65.89,78.79 65.89,79.18 					"/>
					<rect x="61.73" y="76.02" fill="#FFFFFF" width="1.17" height="1.17"/>
					<rect x="36.8" y="74.63" fill="#FFFFFF" width="1.17" height="1.17"/>
					<polygon fill="#FFFFFF" points="36.41,74.63 35.75,75.15 35.57,75.8 36.58,75.8 36.58,74.63 					"/>
					<rect x="36.8" y="76.02" fill="#FFFFFF" width="1.17" height="1.17"/>
					<rect x="36.8" y="77.4" fill="#FFFFFF" width="1.17" height="1.17"/>
					<polygon fill="#FFFFFF" points="37.97,73.43 36.8,74.33 36.8,74.42 37.97,74.42 					"/>
					<rect x="61.73" y="74.63" fill="#FFFFFF" width="1.17" height="1.17"/>
					<polygon fill="#FFFFFF" points="65.06,81.34 65.51,80.17 64.5,80.17 64.5,81.34 					"/>
					<polygon fill="#FFFFFF" points="62.9,74.42 62.9,73.68 62.49,73.25 61.73,73.25 61.73,74.42 					"/>
					<polygon fill="#FFFFFF" points="63.12,83.86 64.14,82.94 63.12,82.94 					"/>
					<polygon fill="#FFFFFF" points="36.8,81.56 36.8,82.7 36.85,82.73 37.97,82.73 37.97,81.56 					"/>
					<polygon fill="#FFFFFF" points="64.62,82.52 64.98,81.56 64.5,81.56 64.5,82.62 					"/>
					<rect x="35.41" y="78.79" fill="#FFFFFF" width="1.17" height="1.17"/>
					<rect x="35.41" y="77.4" fill="#FFFFFF" width="1.17" height="1.17"/>
					<rect x="35.41" y="80.17" fill="#FFFFFF" width="1.17" height="1.17"/>
					<polygon fill="#FFFFFF" points="40.74,72.91 39.89,73.03 40.74,73.03 					"/>
					<rect x="42.34" y="74.63" fill="#FFFFFF" width="1.17" height="1.17"/>
					<rect x="57.58" y="77.4" fill="#FFFFFF" width="1.17" height="1.17"/>
					<rect x="57.58" y="76.02" fill="#FFFFFF" width="1.17" height="1.17"/>
					<rect x="57.58" y="74.63" fill="#FFFFFF" width="1.17" height="1.17"/>
					<rect x="57.58" y="78.79" fill="#FFFFFF" width="1.17" height="1.17"/>
					<rect x="54.81" y="82.94" fill="#FFFFFF" width="1.17" height="1.17"/>
					<rect x="57.58" y="80.17" fill="#FFFFFF" width="1.17" height="1.17"/>
					<rect x="56.19" y="82.94" fill="#FFFFFF" width="1.17" height="1.17"/>
					<rect x="57.58" y="82.94" fill="#FFFFFF" width="1.17" height="1.17"/>
					<rect x="57.58" y="73.25" fill="#FFFFFF" width="1.17" height="1.17"/>
					<rect x="57.58" y="81.56" fill="#FFFFFF" width="1.17" height="1.17"/>
					<rect x="57.58" y="71.86" fill="#FFFFFF" width="1.17" height="1.17"/>
					<polygon fill="#FFFFFF" points="55.98,66.1 55.98,65.28 54.97,64.93 54.81,64.93 54.81,66.1 					"/>
					<polygon fill="#FFFFFF" points="53.89,64.56 53.52,64.72 54.35,64.72 					"/>
					<polygon fill="#FFFFFF" points="58.75,67.49 58.75,66.5 58.53,66.32 57.58,66.32 57.58,67.49 					"/>
					<rect x="57.58" y="70.48" fill="#FFFFFF" width="1.17" height="1.17"/>
					<rect x="57.58" y="67.7" fill="#FFFFFF" width="1.17" height="1.17"/>
					<rect x="57.58" y="69.09" fill="#FFFFFF" width="1.17" height="1.17"/>
					<rect x="42.34" y="77.4" fill="#FFFFFF" width="1.17" height="1.17"/>
					<rect x="42.34" y="76.02" fill="#FFFFFF" width="1.17" height="1.17"/>
					<rect x="53.42" y="82.94" fill="#FFFFFF" width="1.17" height="1.17"/>
					<rect x="42.34" y="80.17" fill="#FFFFFF" width="1.17" height="1.17"/>
					<rect x="58.96" y="67.7" fill="#FFFFFF" width="1.17" height="1.17"/>
					<polygon fill="#FFFFFF" points="43.51,70.48 42.87,70.48 42.34,71.23 42.34,71.64 43.51,71.64 					"/>
					<rect x="42.34" y="71.86" fill="#FFFFFF" width="1.17" height="1.17"/>
					<rect x="42.34" y="81.56" fill="#FFFFFF" width="1.17" height="1.17"/>
					<rect x="42.34" y="78.79" fill="#FFFFFF" width="1.17" height="1.17"/>
					<rect x="47.88" y="82.94" fill="#FFFFFF" width="1.17" height="1.17"/>
					<rect x="50.65" y="82.94" fill="#FFFFFF" width="1.17" height="1.17"/>
					<rect x="42.34" y="82.94" fill="#FFFFFF" width="1.17" height="1.17"/>
					<rect x="52.04" y="82.94" fill="#FFFFFF" width="1.17" height="1.17"/>
					<rect x="49.27" y="82.94" fill="#FFFFFF" width="1.17" height="1.17"/>
					<rect x="43.72" y="82.94" fill="#FFFFFF" width="1.17" height="1.17"/>
					<rect x="45.11" y="82.94" fill="#FFFFFF" width="1.17" height="1.17"/>
					<rect x="46.5" y="82.94" fill="#FFFFFF" width="1.17" height="1.17"/>
					<rect x="42.34" y="73.25" fill="#FFFFFF" width="1.17" height="1.17"/>
					<polygon fill="#FFFFFF" points="52.04,84.5 52.62,84.5 53.21,84.49 53.21,84.33 52.04,84.33 					"/>
					<polygon fill="#FFFFFF" points="57.58,84.4 58.75,84.37 58.75,84.33 57.58,84.33 					"/>
					<rect x="58.96" y="82.94" fill="#FFFFFF" width="1.17" height="1.17"/>
					<rect x="58.96" y="80.17" fill="#FFFFFF" width="1.17" height="1.17"/>
					<rect x="58.96" y="81.56" fill="#FFFFFF" width="1.17" height="1.17"/>
					<polygon fill="#FFFFFF" points="53.42,84.48 54.59,84.46 54.59,84.33 53.42,84.33 					"/>
					<polygon fill="#FFFFFF" points="54.81,84.45 55.98,84.43 55.98,84.33 54.81,84.33 					"/>
					<polygon fill="#FFFFFF" points="56.19,84.42 57.36,84.4 57.36,84.33 56.19,84.33 					"/>
					<polygon fill="#FFFFFF" points="58.96,84.37 59.6,84.35 59.98,84.33 58.96,84.33 					"/>
					<rect x="58.96" y="71.86" fill="#FFFFFF" width="1.17" height="1.17"/>
					<rect x="58.96" y="70.48" fill="#FFFFFF" width="1.17" height="1.17"/>
					<rect x="58.96" y="69.09" fill="#FFFFFF" width="1.17" height="1.17"/>
					<rect x="58.96" y="73.25" fill="#FFFFFF" width="1.17" height="1.17"/>
					<rect x="58.96" y="76.02" fill="#FFFFFF" width="1.17" height="1.17"/>
					<rect x="58.96" y="77.4" fill="#FFFFFF" width="1.17" height="1.17"/>
					<rect x="58.96" y="74.63" fill="#FFFFFF" width="1.17" height="1.17"/>
					<rect x="58.96" y="78.79" fill="#FFFFFF" width="1.17" height="1.17"/>
					<rect x="40.95" y="74.63" fill="#FFFFFF" width="1.17" height="1.17"/>
					<rect x="40.95" y="81.56" fill="#FFFFFF" width="1.17" height="1.17"/>
					<rect x="40.95" y="78.79" fill="#FFFFFF" width="1.17" height="1.17"/>
					<rect x="40.95" y="77.4" fill="#FFFFFF" width="1.17" height="1.17"/>
					<rect x="40.95" y="80.17" fill="#FFFFFF" width="1.17" height="1.17"/>
					<rect x="40.95" y="76.02" fill="#FFFFFF" width="1.17" height="1.17"/>
					<polygon fill="#FFFFFF" points="42.12,71.86 41.89,71.86 41.2,72.84 40.95,72.87 40.95,73.03 42.12,73.03 					"/>
					<rect x="40.95" y="73.25" fill="#FFFFFF" width="1.17" height="1.17"/>
					<polygon fill="#FFFFFF" points="53.21,64.93 53.01,64.93 52.04,65.36 52.04,66.1 53.21,66.1 					"/>
					<polygon fill="#FFFFFF" points="43.72,84.45 44.89,84.48 44.89,84.33 43.72,84.33 					"/>
					<rect x="46.5" y="84.33" fill="#FFFFFF" width="1.17" height="0.17"/>
					<rect x="47.88" y="84.33" fill="#FFFFFF" width="1.17" height="0.17"/>
					<polygon fill="#FFFFFF" points="45.11,84.49 45.5,84.5 46.28,84.5 46.28,84.33 45.11,84.33 					"/>
					<rect x="49.27" y="84.33" fill="#FFFFFF" width="1.17" height="0.17"/>
					<polygon fill="#FFFFFF" points="42.34,84.41 43.51,84.44 43.51,84.33 42.34,84.33 					"/>
					<rect x="50.65" y="84.33" fill="#FFFFFF" width="1.17" height="0.17"/>
					<polygon fill="#FFFFFF" points="40.95,84.38 42.12,84.41 42.12,84.33 40.95,84.33 					"/>
					<rect x="40.95" y="82.94" fill="#FFFFFF" width="1.17" height="1.17"/>
				</g>
			</g>
		</g>
	</g>
	<g>
		<g>
			<g>
				<g id="path3773_2_">
					<g>
						<path fill="#FFFFFF" d="M76.69,62.79c-0.03,0-0.05-0.01-0.07-0.04l-0.59-1.55c-0.01-0.03,0-0.07,0.04-0.08l0,0
							c0.42-0.16,0.63-0.63,0.47-1.06c-0.16-0.42-0.63-0.63-1.06-0.47c-0.42,0.16-0.63,0.63-0.47,1.06l0,0
							c0.08,0.21,0.25,0.39,0.47,0.47c0.03,0.01,0.05,0.05,0.04,0.08l-0.59,1.55c-0.01,0.03-0.05,0.05-0.08,0.04l0,0
							c-1.34-0.51-2-2.02-1.49-3.35c0.51-1.34,2.02-2,3.35-1.49c0.64,0.25,1.17,0.73,1.44,1.36c0.59,1.31,0,2.84-1.31,3.43
							c-0.04,0.01-0.08,0.04-0.13,0.05C76.7,62.79,76.7,62.79,76.69,62.79z"/>
					</g>
				</g>
				<g>
					<path fill="#FFFFFF" d="M75.79,64.78c-2.42,0-4.39-1.97-4.39-4.39c0-2.42,1.97-4.39,4.39-4.39s4.39,1.97,4.39,4.39
						C80.17,62.81,78.2,64.78,75.79,64.78z M75.79,56.93c-1.91,0-3.46,1.55-3.46,3.46c0,1.91,1.55,3.46,3.46,3.46
						c1.91,0,3.46-1.55,3.46-3.46C79.25,58.49,77.7,56.93,75.79,56.93z"/>
				</g>
			</g>
			<g>
				<path fill="#FFFFFF" d="M85.48,57.83c0.42,0.36,0.63,0.87,0.63,1.52c0,0.68-0.21,1.21-0.63,1.58c-0.42,0.37-1.02,0.56-1.79,0.56
					h-1.68v2.01H81.4v-6.21h2.29C84.46,57.29,85.06,57.47,85.48,57.83z M85.04,60.54c0.32-0.27,0.48-0.66,0.48-1.17
					c0-0.5-0.16-0.88-0.48-1.14c-0.32-0.26-0.78-0.39-1.38-0.39h-1.65v3.1h1.65C84.26,60.94,84.71,60.81,85.04,60.54z"/>
				<path fill="#FFFFFF" d="M87.97,57.29h4.16v0.55h-3.55v2.22h3.17v0.55h-3.17v2.34h3.66v0.55h-4.28V57.29z"/>
				<path fill="#FFFFFF" d="M98.94,57.29h0.6v6.21H98.9l-3.85-5.26v5.26h-0.61v-6.21h0.65l3.86,5.26V57.29z"/>
			</g>
		</g>
		<g>
			<path fill="#FFFFFF" d="M78.92,78.18l-0.76-1.98h-4.83l-0.78,1.98h-2.99l4.8-11.17h2.99l4.68,11.17H78.92z M74.2,73.97h3.09
				l-1.53-3.98L74.2,73.97z"/>
			<path fill="#FFFFFF" d="M89.73,78.18l-1.62-3.09h-0.06h-2.1v3.09h-2.92V67.01h5.02c1.48,0,2.62,0.34,3.43,1.03
				c0.81,0.68,1.22,1.65,1.22,2.89c0,0.84-0.17,1.56-0.51,2.17c-0.34,0.61-0.83,1.09-1.48,1.43l2.33,3.65H89.73z M85.94,72.76h2.12
				c0.59,0,1.05-0.15,1.38-0.45c0.32-0.3,0.49-0.73,0.49-1.29c0-0.54-0.16-0.96-0.49-1.25c-0.32-0.29-0.78-0.44-1.38-0.44h-2.12
				V72.76z"/>
			<path fill="#FFFFFF" d="M104.88,69.71c-0.5-0.27-0.99-0.41-1.48-0.41c-0.56,0-1.08,0.14-1.54,0.42
				c-0.46,0.28-0.83,0.67-1.09,1.16c-0.27,0.49-0.4,1.04-0.4,1.65c0,0.61,0.13,1.16,0.4,1.65c0.27,0.49,0.63,0.88,1.09,1.16
				c0.46,0.28,0.97,0.42,1.54,0.42c0.46,0,0.93-0.12,1.43-0.35c0.5-0.23,0.95-0.55,1.34-0.96l1.7,1.83
				c-0.61,0.64-1.32,1.14-2.16,1.52c-0.83,0.38-1.66,0.57-2.48,0.57c-1.1,0-2.1-0.25-2.99-0.76c-0.89-0.51-1.59-1.21-2.1-2.09
				c-0.51-0.88-0.76-1.87-0.76-2.96c0-1.08,0.26-2.06,0.78-2.93c0.52-0.87,1.23-1.56,2.14-2.06c0.91-0.5,1.92-0.75,3.05-0.75
				c0.83,0,1.65,0.17,2.45,0.52c0.81,0.35,1.49,0.82,2.06,1.41l-1.69,2.04C105.81,70.35,105.38,69.98,104.88,69.71z"/>
			<path fill="#FFFFFF" d="M109.12,67.01h2.92v8.68h4.73v2.49h-7.65V67.01z"/>
			<path fill="#FFFFFF" d="M126.49,67.59c0.92,0.5,1.64,1.18,2.17,2.06c0.53,0.87,0.79,1.85,0.79,2.93c0,1.09-0.26,2.08-0.79,2.96
				c-0.53,0.88-1.25,1.58-2.17,2.09c-0.92,0.51-1.95,0.76-3.08,0.76c-1.14,0-2.16-0.25-3.08-0.76c-0.92-0.5-1.64-1.2-2.17-2.09
				c-0.53-0.89-0.79-1.88-0.79-2.97c0-1.08,0.26-2.06,0.79-2.93c0.53-0.87,1.25-1.56,2.17-2.06c0.92-0.5,1.95-0.75,3.08-0.75
				C124.55,66.84,125.57,67.09,126.49,67.59z M121.9,69.74c-0.47,0.29-0.85,0.68-1.12,1.19c-0.28,0.5-0.41,1.06-0.41,1.66
				c0,0.62,0.14,1.18,0.42,1.68c0.28,0.5,0.66,0.9,1.12,1.19c0.47,0.29,0.98,0.44,1.53,0.44c0.55,0,1.06-0.15,1.52-0.44
				c0.46-0.29,0.83-0.69,1.09-1.19c0.27-0.5,0.4-1.06,0.4-1.68c0-0.61-0.13-1.16-0.4-1.66c-0.27-0.5-0.63-0.9-1.09-1.19
				c-0.46-0.29-0.97-0.43-1.52-0.43C122.89,69.31,122.38,69.45,121.9,69.74z"/>
			<path fill="#FFFFFF" d="M134.24,75.26c0.41,0.42,0.94,0.64,1.58,0.64c0.63,0,1.13-0.21,1.52-0.63c0.39-0.42,0.58-0.99,0.58-1.7
				v-6.56h2.92v6.56c0,0.97-0.2,1.81-0.61,2.54c-0.41,0.73-0.99,1.29-1.75,1.68c-0.76,0.39-1.65,0.59-2.67,0.59
				c-1.02,0-1.91-0.2-2.68-0.59c-0.77-0.39-1.36-0.95-1.78-1.68c-0.42-0.73-0.63-1.57-0.63-2.54v-6.56h2.92v6.56
				C133.62,74.28,133.83,74.84,134.24,75.26z"/>
			<path fill="#FFFFFF" d="M150.74,67.71c0.9,0.47,1.6,1.12,2.09,1.97c0.5,0.84,0.75,1.81,0.75,2.91c0,1.09-0.25,2.07-0.76,2.92
				c-0.5,0.85-1.22,1.51-2.13,1.98c-0.92,0.47-1.97,0.7-3.16,0.7h-4.7V67.01h4.81C148.81,67.01,149.84,67.25,150.74,67.71z
				 M149.22,75.42c0.44-0.27,0.78-0.64,1.02-1.13c0.24-0.49,0.37-1.05,0.37-1.67c0-0.64-0.13-1.2-0.39-1.69
				c-0.26-0.49-0.62-0.87-1.08-1.14c-0.46-0.27-0.98-0.41-1.56-0.41h-1.83v6.44h1.98C148.28,75.82,148.78,75.69,149.22,75.42z"/>
		</g>
	</g>
</g>
</svg>
